<?xml version="1.0" encoding="UTF-8"?><svg id="Layer_1" xmlns="http://www.w3.org/2000/svg" viewBox="0 0 228.53 228.53"><defs><style>.cls-1{fill:#141414;}.cls-2{fill:none;stroke:#141414;stroke-miterlimit:10;stroke-width:4px;}</style></defs><circle class="cls-2" cx="114.26" cy="114.26" r="112.26"/><path class="cls-1" d="m114.3,59.14c14.44,0,28.09,5.56,38.45,15.65,10.37,10.11,16.28,23.65,16.63,38.13.36,14.72-5.04,28.7-15.19,39.36-10.15,10.66-23.85,16.73-38.57,17.09-.46.01-.92.02-1.37.02-14.44,0-28.09-5.56-38.45-15.65-10.37-10.11-16.28-23.65-16.63-38.13-.74-30.39,23.38-55.71,53.76-56.45.46-.01.92-.02,1.37-.02h0m0-4c-.49,0-.98,0-1.47.02-32.64.8-58.46,27.91-57.67,60.55.78,32.15,27.09,57.68,59.08,57.68.49,0,.98,0,1.47-.02,32.64-.8,58.46-27.91,57.67-60.55-.78-32.15-27.09-57.69-59.08-57.68h0Z"/><path class="cls-1" d="m54.69,69.25l-15.92-15.76,4.67-4.72,6.05,5.99,4.38-4.43-6.05-5.99,4.67-4.72,15.92,15.76-4.67,4.72-5.94-5.88-4.38,4.43,5.94,5.87-4.67,4.72Z"/><path class="cls-1" d="m71.56,53.75l-12.07-18.87,5.6-3.58,12.07,18.87-5.6,3.58Z"/><path class="cls-1" d="m90.97,43.98l-4.5-16.05-5.54,1.55-1.55-5.51,17.5-4.91,1.55,5.52-5.54,1.55,4.5,16.05-6.43,1.8Z"/><path class="cls-1" d="m104.31,40.35l-.05-22.4h6.64s.02,8.5.02,8.5h6.23s-.02-8.53-.02-8.53h6.64s.05,22.39.05,22.39h-6.64s-.02-8.34-.02-8.34h-6.23s.02,8.37.02,8.37h-6.64Z"/><path class="cls-1" d="m127,41.08l5.89-21.61,13.87,3.78-1.31,4.82-7.46-2.03-1.02,3.77,7.46,2.03-1.25,4.6-7.46-2.03-.99,3.61,7.46,2.03-1.31,4.82-13.87-3.78Z"/><path class="cls-1" d="m167.35,43.33c-.75,1.29-1.72,2.3-2.9,3.03-1.18.73-2.45,1.12-3.81,1.17l-.46,7.88-6.59-3.85.41-6.4-1.6-.93-2.89,4.95-5.74-3.35,11.29-19.35,9.32,5.44c2.06,1.2,3.37,2.88,3.94,5.04.57,2.16.24,4.28-.97,6.36Zm-9.16-9.02l-3.19,5.47,2.37,1.38c.74.43,1.5.53,2.29.3.79-.23,1.41-.74,1.88-1.54.46-.79.6-1.59.42-2.39-.19-.8-.64-1.41-1.36-1.83l-2.4-1.4Z"/><path class="cls-1" d="m161.87,57.19l15.89-15.79,10.13,10.2-3.54,3.52-5.45-5.48-2.77,2.75,5.45,5.48-3.38,3.36-5.45-5.48-2.66,2.64,5.45,5.48-3.54,3.52-10.13-10.2Z"/><path class="cls-1" d="m188.56,111.39l22.37,1.22-.36,6.63-16.65-.91-.41,7.59-5.72-.31.78-14.22Z"/><path class="cls-1" d="m187.29,128.18l21.5,6.3-4.04,13.79-4.79-1.4,2.17-7.42-3.75-1.1-2.17,7.42-4.58-1.34,2.17-7.42-3.59-1.05-2.17,7.42-4.79-1.4,4.04-13.79Z"/><path class="cls-1" d="m180.09,148.2l14.45,8.31,2.87-4.98,4.96,2.86-9.06,15.75-4.97-2.85,2.87-4.98-14.45-8.31,3.33-5.79Z"/><path class="cls-1" d="m187.85,177.62c-.71.82-1.61,1.22-2.7,1.21-1.09-.02-2.2-.51-3.32-1.49-1.53-1.33-2.35-2.72-2.47-4.18s.44-2.89,1.67-4.31c.04-.05.3-.29.76-.73l1.52,1.32c-.23.2-.51.49-.84.87-.64.74-.95,1.53-.92,2.38.05.69.35,1.34.89,1.96-.06-.45.14-.94.6-1.47.63-.72,1.37-1.09,2.21-1.1.85-.01,1.62.29,2.33.9.69.6,1.07,1.35,1.13,2.23s-.22,1.69-.85,2.42Z"/><path class="cls-1" d="m159.44,171.91c2.29-1.8,4.54-2.66,6.73-2.58,2.19.08,4.06,1.12,5.62,3.1l-5.23,4.1c-.59-.75-1.26-1.2-1.99-1.32-.74-.13-1.46.08-2.16.64-1.17.92-1.38,1.87-.61,2.84.32.4.69.63,1.14.67.44.04,1.06-.05,1.84-.29l4.5-1.46c3.25-1.03,5.81-.36,7.68,2.03,1.29,1.64,1.71,3.45,1.25,5.4s-1.74,3.77-3.87,5.44c-2.14,1.68-4.25,2.52-6.32,2.52-2.07,0-3.79-.88-5.16-2.62l5.23-4.1c.51.66,1.08,1.03,1.69,1.14s1.22-.08,1.82-.55c.49-.38.78-.8.88-1.26.1-.46-.01-.9-.34-1.32-.28-.35-.66-.55-1.15-.58-.49-.04-1.2.09-2.13.39l-4.18,1.29c-3.26.99-5.84.27-7.73-2.15-1.4-1.78-1.87-3.69-1.41-5.73.46-2.04,1.76-3.91,3.93-5.6Z"/><path class="cls-1" d="m133.71,184.9c3.53-.99,6.7-.72,9.51.8s4.69,3.96,5.63,7.31c.94,3.35.6,6.41-1.01,9.17-1.61,2.77-4.18,4.64-7.71,5.63-3.36.94-6.29.91-8.78-.1-2.49-1.01-4.27-2.88-5.32-5.62l6.77-1.9c.51.94,1.26,1.59,2.27,1.94,1,.35,2.15.34,3.45-.02,1.66-.47,2.81-1.34,3.46-2.63.65-1.29.72-2.83.22-4.61s-1.36-3.06-2.58-3.83c-1.22-.77-2.66-.92-4.32-.45-1.29.36-2.28.95-2.95,1.77-.68.82-.99,1.77-.93,2.84l-6.77,1.9c-.52-2.89.02-5.41,1.63-7.57,1.61-2.16,4.09-3.71,7.45-4.65Z"/><path class="cls-1" d="m100.49,190.3c2.38-2.16,5.43-3.12,9.17-2.89,3.74.23,6.66,1.57,8.75,4.01,2.09,2.44,3.03,5.32,2.82,8.64-.21,3.32-1.5,6.06-3.87,8.22-2.37,2.16-5.43,3.12-9.17,2.89-3.74-.23-6.66-1.57-8.74-4.01-2.09-2.44-3.03-5.32-2.82-8.64.21-3.32,1.5-6.06,3.87-8.22Zm8.8,3.05c-1.72-.11-3.09.38-4.11,1.46-1.02,1.08-1.57,2.46-1.65,4.15-.12,1.68.25,3.12,1.12,4.32s2.17,1.85,3.89,1.96c1.7.11,3.06-.38,4.08-1.46,1.02-1.08,1.58-2.46,1.68-4.14s-.28-3.12-1.16-4.32c-.88-1.2-2.16-1.85-3.86-1.96Z"/><path class="cls-1" d="m95.73,186.59l-8.33,20.8-6.23-2.49-1.43-14.29-4.73,11.82-5.93-2.38,8.33-20.79,6.23,2.49,1.43,14.29,4.73-11.82,5.93,2.37Z"/><path class="cls-1" d="m74.76,177.69l-14.23,17.3-5.18-4.26,2.96-14.06-8.09,9.83-4.93-4.06,14.23-17.3,5.18,4.26-2.96,14.05,8.09-9.83,4.93,4.06Z"/><path class="cls-1" d="m57.61,162.52l-18.37,12.83-8.23-11.78,4.09-2.86,4.43,6.34,3.2-2.24-4.42-6.34,3.91-2.73,4.43,6.34,3.07-2.14-4.43-6.34,4.09-2.86,8.23,11.78Z"/><path class="cls-1" d="m44.78,137.84c1.19,3.46,1.1,6.65-.26,9.54-1.36,2.9-3.69,4.91-6.98,6.04s-6.36.97-9.22-.49c-2.85-1.45-4.88-3.91-6.07-7.37-1.13-3.3-1.27-6.23-.41-8.78.86-2.55,2.63-4.42,5.31-5.64l2.28,6.65c-.91.56-1.51,1.35-1.81,2.38-.29,1.02-.22,2.17.22,3.44.56,1.63,1.5,2.73,2.82,3.3s2.86.55,4.62-.05c1.76-.6,2.98-1.54,3.68-2.8.7-1.26.76-2.71.2-4.34-.44-1.27-1.08-2.22-1.94-2.85s-1.82-.88-2.88-.77l-2.28-6.65c2.85-.69,5.4-.29,7.65,1.19,2.25,1.48,3.93,3.87,5.07,7.18Z"/><path class="cls-1" d="m40.48,121.53l-16.65.85.29,5.74-5.72.29-.92-18.15,5.72-.29.29,5.74,16.65-.84.34,6.67Z"/><path class="cls-1" d="m32.11,100.34l-5.92-1c1.69-10.02,5.05-19.6,10-28.49l5.24,2.92c-4.62,8.29-7.76,17.22-9.33,26.56Z"/><path class="cls-1" d="m196.42,100.33c-1.57-9.35-4.71-18.28-9.32-26.56l5.24-2.92c4.95,8.88,8.31,18.46,9.99,28.49l-5.92,1Z"/></svg>